<svg version="1.0"
    xmlns="http://www.w3.org/2000/svg" width="200pt" height="200pt" viewBox="0 0 200 200" preserveAspectRatio="xMidYMid meet">

    <g transform="translate(0,200) scale(0.1,-0.1)" fill="#f00" stroke="none">
        <path d="M290 1650 c0 -303 2 -355 16 -383 39 -76 104 -117 201 -125 l63 -5 0
-353 0 -354 145 0 145 0 0 163 c0 178 8 205 66 243 35 23 113 23 148 0 58 -38
66 -65 66 -243 l0 -163 145 0 145 0 0 354 0 353 63 5 c100 8 169 53 202 130
12 31 15 94 15 383 l0 345 -140 0 -139 0 -3 -142 -3 -143 -140 0 -140 0 -3
143 -3 142 -139 0 -139 0 -3 -142 -3 -143 -140 0 -140 0 -3 143 -3 142 -139 0
-140 0 0 -350z"/>
        <path d="M290 145 l0 -145 710 0 710 0 0 145 0 145 -710 0 -710 0 0 -145z"/>
    </g>
</svg>
