<?xml version="1.0" encoding="UTF-8" standalone="no"?>
<svg xmlns:inkscape="http://www.inkscape.org/namespaces/inkscape"
  xmlns="http://www.w3.org/2000/svg"
  xmlns:sodipodi="http://sodipodi.sourceforge.net/DTD/sodipodi-0.dtd"
  xmlns:cc="http://creativecommons.org/ns#"
  xmlns:xlink="http://www.w3.org/1999/xlink"
  xmlns:dc="http://purl.org/dc/elements/1.1/"
  xmlns:svg="http://www.w3.org/2000/svg" viewBox="0 0 600 500" version="1.1">
  <defs id="defs4">
    <linearGradient id="linearGradient3799" gradientUnits="userSpaceOnUse" x1="147.4" y1="297.63" x2="630.98" y2="297.63">
      <stop style="stop-color:#ff0000" offset="0" />
      <stop style="stop-color:#920000" offset="1" />
    </linearGradient>
    <linearGradient id="linearGradient3846" gradientUnits="userSpaceOnUse" x1="249.62" y1="-169.26" x2="423.6" y2="352.67">
      <stop style="stop-color:#ffffff" offset="0" />
      <stop style="stop-color:#ffffff;stop-opacity:0" offset="1" />
    </linearGradient>
  </defs>
  <g id="layer1">
    <path style="stroke:#000000;stroke-width:1px;fill:url(#linearGradient3799)" d="m94.04 60.99c84.509-80.276 193.89 16.046 195.16 78.894 1.265-62.848 110.65-159.17 195.16-78.894 172.71 164.06-195.16 403.83-195.16 403.83s-367.87-239.77-195.16-403.83z" />
    <path style="fill:url(#linearGradient3846)" d="m524.56 122.47c-6.75-21.21-19.59-41.88-40.22-61.47-84.51-80.276-193.89 16.03-195.15 78.88-1.27-62.85-110.65-159.16-195.16-78.88-74.53 70.8-48.33 155.67 5.47 229.31 3.54-2.38 7.11-4.74 10.81-7.03 4.69-2.9 9.49-5.7 14.44-8.44 4.95-2.73 10.04-5.39 15.25-7.93 5.21-2.55 10.52-5.02 16-7.35s11.1-4.53 16.84-6.62c5.75-2.09 11.64-4.05 17.66-5.88 6.02-1.82 12.17-3.53 18.47-5.06s12.76-2.91 19.34-4.12c6.59-1.22 13.29-2.26 20.16-3.13s13.9-1.56 21.06-2.06c7.16-0.51 14.45-0.83 21.91-0.94 7.45-0.11 14.75-0.43 21.84-0.94s13.98-1.21 20.72-2.09 13.33-1.93 19.72-3.16 12.6-2.63 18.66-4.18c6.05-1.56 11.93-3.25 17.65-5.1 5.73-1.85 11.32-3.85 16.72-5.97s10.63-4.35 15.72-6.72c5.09-2.36 10.05-4.85 14.84-7.43s9.42-5.26 13.91-8.04c4.49-2.77 8.82-5.62 13.03-8.56s8.29-5.95 12.22-9.03 7.72-6.21 11.37-9.41c3.66-3.19 7.17-6.44 10.57-9.71 3.39-3.28 6.64-6.6 9.78-9.94s6.17-6.69 9.06-10.06c2.55-2.97 4.95-5.96 7.31-8.94z" />
  </g>
</svg>
